{"title":"Entourage.2015.1080p.HC.WEBRip.x264.AAC-Chuck[rarbg]","uid":12172946,"size":2032617616,"categoryP":"video","categoryS":"movies","magnet":"?xt=urn:btih:9575922199567b377224176eb2f1a5d87e12f52f&amp;dn=Entourage.2015.1080p.HC.WEBRip.x264.AAC-Chuck%5Brarbg%5D&amp;tr=udp%3A%2F%2Ftracker.openbittorrent.com%3A80&amp;tr=udp%3A%2F%2Fopen.demonii.com%3A1337&amp;tr=udp%3A%2F%2Ftracker.coppersurfer.tk%3A6969&amp;tr=udp%3A%2F%2Fexodus.desync.com%3A6969","seeders":21,"leechers":1,"uploader":"vickey1992","files":2,"time":1438263597,"description":"Entourage.2015.1080p.HC.WEBRip.x264.AAC-Chuck\n\nNote: 4 minutes of sexual scenes are missing in the source. Still the best quality right now. Enjoy\n\n[-] Hide MediaInfo\n\nVideo\nID                                       : 1\nFormat                                   : AVC\nFormat/Info                              : Advanced Video Codec\nFormat profile                           : Main@L4\nFormat settings, CABAC                   : Yes\nFormat settings, ReFrames                : 4 frames\nCodec ID                                 : avc1\nCodec ID/Info                            : Advanced Video Coding\nDuration                                 : 1h 40mn\nBit rate                                 : 2 606 Kbps\nWidth                                    : 1 920 pixels\nHeight                                   : 800 pixels\nDisplay aspect ratio                     : 2.40:1\nFrame rate mode                          : Variable\nFrame rate                               : 23.976 fps\nMinimum frame rate                       : 3.425 fps\nMaximum frame rate                       : 23.976 fps\nColor space                              : YUV\nChroma subsampling                       : 4:2:0\nBit depth                                : 8 bits\nScan type                                : Progressive\nBits/(Pixel*Frame)                       : 0.071\nStream size                              : 1.82 GiB (96%)\nEncoded date                             : UTC 1904-01-01 00:00:00\nTagged date                              : UTC 1904-01-01 00:00:00\nColor range                              : Limited\nColor primaries                          : BT.709\nTransfer characteristics                 : BT.709\nMatrix coefficients                      : BT.709\n\nAudio\nID                                       : 2\nFormat                                   : AAC\nFormat/Info                              : Advanced Audio Codec\nFormat profile                           : HE-AAC / LC\nCodec ID                                 : 40\nDuration                                 : 1h 40mn\nBit rate mode                            : Variable\nBit rate                                 : 96.0 Kbps\nMaximum bit rate                         : 128 Kbps\nChannel(s)                               : 2 channels\nChannel positions                        : Front: L R\nSampling rate                            : 48.0 KHz / 24.0 KHz\nCompression mode                         : Lossy\nStream size                              : 68.8 MiB (4%)\nLanguage                                 : unk\nEncoded date                             : UTC 1904-01-01 00:00:00\nTagged date                              : UTC 1904-01-01 00:00:00","torrent":{"xt":"urn:btih:9575922199567b377224176eb2f1a5d87e12f52f","amp;dn":"Entourage.2015.1080p.HC.WEBRip.x264.AAC-Chuck%5Brarbg%5D","amp;tr":["udp%3A%2F%2Ftracker.openbittorrent.com%3A80","udp%3A%2F%2Fopen.demonii.com%3A1337","udp%3A%2F%2Ftracker.coppersurfer.tk%3A6969","udp%3A%2F%2Fexodus.desync.com%3A6969"],"infoHash":"9575922199567b377224176eb2f1a5d87e12f52f","infoHashBuffer":{"type":"Buffer","data":[149,117,146,33,153,86,123,55,114,36,23,110,178,241,165,216,126,18,245,47]},"announce":[],"urlList":[]}}